<svg version="1.0" xmlns="http://www.w3.org/2000/svg" class="icon" fill="currentColor" viewBox="16 16 193 193"><path d="M64.2 64.3 16 112.5l48.3 48.3 48.2 48.2 48.3-48.3 48.2-48.2-48.3-48.3L112.5 16 64.2 64.3zm2.1 17.4c.3.5 2.4 9.7 4.8 20.5 2.4 10.9 4.6 19.8 4.9 19.8.3 0 1.5-5.3 2.8-11.8 1.3-6.4 3.3-15.6 4.4-20.5l2-8.7H100v59.1l-4.7-.3-4.8-.3v-21.7c0-18.9-.1-21.1-1.1-16.5-.7 2.8-2.9 12.7-4.9 21.9L80.7 140H70.2l-4.5-18.8c-2.5-10.3-4.7-19.8-5-21.2-.2-1.4-.5 7.1-.6 18.7L60 140H50v-28.8c0-15.9.3-29.2.7-29.5.9-1 15.1-.9 15.6 0zm53.5 19c2.3 10.9 4.2 20.9 4.2 22.2 0 4.8 1 1.2 4.9-17.4 2.2-10.5 4.2-20.2 4.6-21.8.7-2.5 1.1-2.7 6.1-2.7 3.4 0 5.4.4 5.4 1.1 0 .7-3.2 13.9-7.1 29.5l-7.2 28.4h-12.3l-6.9-27.8c-3.7-15.2-7-28.5-7.3-29.5-.4-1.5.3-1.7 5.5-1.7h6l4.1 19.7zM175 83.6c5.6 3.3 7.4 6.6 7.8 14.8.3 5.8 0 8.1-1.6 11.2-3.7 7.3-8.8 10.4-16.8 10.4H160v20h-11V80.7l11.3.5c8.9.3 12.1.8 14.7 2.4z"/><path d="M160 100.4v9.6h3.5c5.3 0 7.5-2.8 7.5-9.3 0-6.3-1.7-8.5-7.4-9.4l-3.6-.6v9.7z"/></svg>